<svg width="20" height="20" viewBox="0 0 20 20" fill="none" xmlns="http://www.w3.org/2000/svg">
<g clip-path="url(#clip0_8_951)">
<path fill-rule="evenodd" clip-rule="evenodd" d="M13.3188 9.03906C14.3287 8.06692 14.6471 6.57892 14.1236 5.27858C13.6 3.97825 12.3393 3.12609 10.9375 3.125H5.625C5.27982 3.125 5 3.40482 5 3.75V15.625C5 15.9702 5.27982 16.25 5.625 16.25H11.875C13.6623 16.25 15.2011 14.9887 15.552 13.2362C15.9029 11.4837 14.9682 9.72716 13.3188 9.03906ZM6.25 4.375H10.9375C12.1456 4.375 13.125 5.35438 13.125 6.5625C13.125 7.77062 12.1456 8.75 10.9375 8.75H6.25V4.375ZM11.875 15H6.25V10H11.875C13.2557 10 14.375 11.1193 14.375 12.5C14.375 13.8807 13.2557 15 11.875 15Z" fill="#876370"/>
</g>
<defs>
<clipPath id="clip0_8_951">
<rect width="20" height="20" fill="white"/>
</clipPath>
</defs>
</svg>
