<svg width="20" height="20" viewBox="0 0 20 20" fill="none" xmlns="http://www.w3.org/2000/svg">
<g clip-path="url(#clip0_8_955)">
<path fill-rule="evenodd" clip-rule="evenodd" d="M15.625 4.375C15.625 4.72018 15.3452 5 15 5H12.3258L8.99219 15H11.25C11.5952 15 11.875 15.2798 11.875 15.625C11.875 15.9702 11.5952 16.25 11.25 16.25H5C4.65482 16.25 4.375 15.9702 4.375 15.625C4.375 15.2798 4.65482 15 5 15H7.67422L11.0078 5H8.75C8.40482 5 8.125 4.72018 8.125 4.375C8.125 4.02982 8.40482 3.75 8.75 3.75H15C15.3452 3.75 15.625 4.02982 15.625 4.375Z" fill="#876370"/>
</g>
<defs>
<clipPath id="clip0_8_955">
<rect width="20" height="20" fill="white"/>
</clipPath>
</defs>
</svg>
